#!OML:ASF E:/inclinewalkrobotboard/Project1/Captureday1/Session1/subject1.ASF
:FULLY-SPECIFIED
:DEGREES
176
root 0 0 0 -1.0741706412188927 0.9660823176673534 1.5140314353796058
lowerback 8.514485212526958 -1.42187953423731 -3.7313052896905656
upperback -0.12292019559331682 -2.19952109890329 1.7917956007887517
thorax -4.735508972092081 -0.9852337180430648 4.268594117023792
lowerneck -16.775703195457368 -2.898075793948267 -3.168826150069988
upperneck 18.01163156093098 -3.4603061797701953 1.5540250175276284
head 8.457108012776622 -1.7409747894710927 0.6153677511938913
rclavicle 1.962439523306646E-15 9.622469278364204E-16
rhumerus -33.30666338790668 -26.987594010103372 -79.32340428334703
rradius 20.05170321939346
rwrist 10.369761085634593
rhand -19.283994188694106 24.57160943439244
rfingers 7.125020000000008
rthumb 7.053949081072248 -5.453388655791571
lclavicle 6.707300860813126E-15 2.096012818220895E-15
lhumerus -26.555489847284562 -4.72527913261094 82.6621204124088
lradius 31.80790306648575
lwrist 8.394408594352447
lhand -28.388468294622974 24.993489323107628
lfingers 7.1250200000000214
lthumb -1.7834217298794464 54.96388566409367
rfemur -26.534915291566143 5.465489944999812 22.516436226707434
rtibia 29.736098679810063
rfoot -9.325516217403832 -10.675955702021072
rtoes 0.07521317386136017
lfemur 12.771331452852422 -6.157209114910948 -26.768878579650213
ltibia 20.800028104570927
lfoot -12.9712624174944 -2.573905027985076
ltoes -7.374299705754424
177
root 0 0 0 -2.170081559067757 0.6774493109548185 0.40622926081051514
lowerback 8.241198202844206 -1.4986691308905753 -2.513900460379327
upperback -0.10879117125621236 -2.132996274357387 2.211678157246028
thorax -4.601922629788245 -0.9729831230222854 4.039684082636039
lowerneck -17.23021920764225 -2.7155311015531187 -2.8372053366455376
upperneck 20.056650041126776 -3.1557548839307668 0.6498301563536185
head 9.089814060666498 -1.6300643715301057 0.26233348482698554
rclavicle 1.4275170648932988E-15 7.101770011151507E-16
rhumerus -34.003185493009575 -27.654062417209023 -79.16167963119989
rradius 18.59074853465207
rwrist 9.591722913177232
rhand -18.89895479708383 24.226510712289983
rfingers 7.125020000000013
rthumb 7.425520307879974 -5.7377634082564235
lclavicle 5.028676124126092E-15 1.8387714823244625E-15
lhumerus -27.197794981784142 -4.173782087217585 82.90611756443889
lradius 31.1721599432662
lwrist 8.154688511813472
lhand -28.315242238295014 25.28533784246528
lfingers 7.125020000000027
lthumb -1.7037182398416029 55.27003777086111
rfemur -22.71581820105859 5.78453637772115 24.34497233029255
rtibia 30.176614887057816
rfoot -9.730557483631658 -9.265681270468798
rtoes 2.0253727719850523
lfemur 11.324112521157566 -5.097169078054232 -24.77735791881902
ltibia 29.921522180485276
lfoot -8.601425004063287 -5.763462415400706
ltoes -9.741312792571694
178
root 0 0 0 -3.011077650054048 0.28240829902858255 -0.6079641846959407
lowerback 10.16662510148497 -1.5765135641511145 -1.4284629797401502
upperback 0.41700044699900196 -2.084239055727026 2.524004043689928
thorax -5.14938934819206 -0.9746483589059236 3.7385308374862434
lowerneck -17.55599244849573 -2.763010674025661 -2.496399136716571
upperneck 17.464147905416816 -3.047192293753259 -0.1404236845830955
head 8.230689663843561 -1.6619195357951637 -0.03405609106880647
rclavicle 4.56274257590824E-16 2.8210792232308655E-16
rhumerus -34.07704928124842 -27.48566685420571 -79.23662051923735
rradius 18.115044380724967
rwrist 9.709464547027522
rhand -18.66860387083657 24.245875537266162
rfingers 7.125020000000014
rthumb 7.6461977264847105 -5.686145174291905
lclavicle 2.8732289183489442E-15 1.2257373656813312E-15
lhumerus -27.71657967051884 -3.7625494195083697 83.29556861649839
lradius 30.57904241876281
lwrist 7.92030688447838
lhand -28.22232398846377 25.46954018330961
lfingers 7.125020000000032
lthumb -1.607325448949167 55.468018713769524
rfemur -17.45761091639829 6.338934744600449 27.35443192327923
rtibia 31.957694791723398
rfoot -10.3878162866406 -7.8030034224322105
rtoes 4.366123183779747
lfemur 3.1478057151071352 -3.184592117939913 -21.355084745785515
ltibia 44.526924156602135
lfoot 1.1966340596871952 -11.496613256553426
ltoes -3.3702015354179764
179
root 0 0 0 -3.5187750216807134 -0.19796219111284996 -1.708834022835652
lowerback 11.028393561961352 -1.464071632335063 -0.30582105926077263
upperback 0.5427091716256802 -1.7897079174729764 2.7061778015154694
thorax -5.52826524368309 -0.855566925964762 3.250316161231078
lowerneck -18.009279375156073 -2.740190234117735 -2.2594010159389093
upperneck 16.077340400329376 -2.9966011552657825 -0.3987937827147823
head 7.882836028057043 -1.6514229520254307 -0.14536029727898997
rclavicle -2.679322386225886E-16 -1.1745947432522112E-15
rhumerus -33.67270546567699 -27.082985917355376 -79.2607860982095
rradius 17.811124430230016
rwrist 10.277521589578633
rhand -18.465215724575927 24.637182437670948
rfingers 7.125020000000015
rthumb 7.839271258136505 -5.27879267188926
lclavicle 4.668555179294394E-16 -6.134030832191953E-16
lhumerus -28.1898163246371 -3.2018302811589625 83.93080302614688
lradius 29.568741245031248
lwrist 7.49369432037704
lhand -28.14797020992031 25.69957303159882
lfingers 7.1250200000000365
lthumb -1.5262171869282142 55.71249612755831
rfemur -9.520859137043248 7.387680347164769 32.4134229117874
rtibia 35.27350615152652
rfoot -11.445373572252848 -5.941082027968417
rtoes 7.779701610572709
lfemur -6.517618264680774 0.6318701215565339 -18.318678487472653
ltibia 53.87035849795255
lfoot 7.720239069134845 -15.26478505216982
ltoes -2.0084326969995736
180
root 0 0 0 -4.026701961077177 -1.443450284912608 -3.3973744417076683
lowerback 10.275783074220607 -0.8436193722252635 1.3039720199446192
upperback 0.019818899434739023 -0.7721113979751064 2.7867045600183915
thorax -5.681891093705465 -0.3855187481838004 2.3036889589597234
lowerneck -18.482026244236856 -2.7187047348647204 -1.9282575595706963
upperneck 18.127459203477127 -3.1988245394598738 -0.15328926228197215
head 8.816267922856264 -1.6493522241511887 -0.15849728533138113
rclavicle -6.701551583780007E-16 -2.3311205473801916E-15
rhumerus -33.33795341373737 -26.031918597101996 -79.59938031766227
rradius 17.758084293914607
rwrist 10.801761157736195
rhand -18.23376236030836 25.087175869898104
rfingers 7.125020000000016
rthumb 8.060385379575035 -4.784754294402003
lclavicle -2.035054299926317E-15 -1.9248310519463147E-15
lhumerus -28.66888355914558 -2.1786701297800577 84.60119880134826
lradius 27.870797070753063
lwrist 6.711012979553795
lhand -28.13358592422062 25.957793047332526
lfingers 7.125020000000043
lthumb -1.507005464507225 55.98681658799292
rfemur -6.393108858757327 7.72005894112954 34.466138542262854
rtibia 36.57566592278852
rfoot -12.671977410953694 -5.379482031121345
rtoes 9.204775558704629
lfemur -12.328959099487998 3.154329553362188 -17.27403061665345
ltibia 57.77994604335221
lfoot 7.052069252700008 -14.796272140081655
ltoes -2.821538660554058
